<svg width="32" height="32" fill="none" xmlns="http://www.w3.org/2000/svg"><g clip-path="url(#a)"><path d="M22.4 9.6H9.6v12.8h12.8V9.6Z" fill="#fff"></path><path d="M12.224 19.52c-.48-.32-.8-.8-.992-1.408l1.12-.448c.096.384.288.672.512.896.256.224.544.32.896.32s.672-.096.928-.32.384-.512.384-.832c0-.352-.128-.64-.416-.864-.288-.224-.608-.32-1.024-.32h-.64v-1.088h.576c.352 0 .64-.096.896-.288.256-.192.352-.448.352-.8 0-.288-.096-.544-.32-.704-.224-.192-.48-.256-.832-.256-.32 0-.576.096-.768.256-.192.16-.32.384-.416.64l-1.088-.448c.16-.416.416-.768.8-1.088.384-.32.896-.48 1.504-.48.448 0 .864.096 1.216.256s.64.416.832.736c.192.32.32.64.32 1.024s-.096.736-.288.992c-.192.288-.416.48-.704.64V16c.352.16.672.384.896.704.224.32.352.672.352 1.12 0 .448-.096.832-.32 1.152a2.075 2.075 0 0 1-.928.8 2.926 2.926 0 0 1-1.312.288 3.418 3.418 0 0 1-1.536-.544ZM19.039 14.016l-1.216.896-.608-.928 2.176-1.568h.832v7.424h-1.184v-5.824Z" fill="#4285F4"></path><path d="M22.4 22.4H9.6v5.76h12.8V22.4Z" fill="#34A853"></path><path d="M22.4 3.84H5.76c-1.056 0-1.92.864-1.92 1.92V22.4H9.6V9.6h12.8V3.84Z" fill="#4285F4"></path><path d="M3.84 22.4v3.84c0 1.056.864 1.92 1.92 1.92H9.6V22.4H3.84Z" fill="#188038"></path><path d="M28.16 9.6H22.4v12.8h5.76V9.6Z" fill="#FBBC04"></path><path d="M28.16 9.6V5.76c0-1.056-.864-1.92-1.92-1.92H22.4V9.6h5.76Z" fill="#1967D2"></path><path d="m22.4 28.16 5.76-5.76H22.4v5.76Z" fill="#EA4335"></path></g><defs><clipPath id="a"><path fill="#fff" transform="translate(3.84 3.84)" d="M0 0h24.32v24.32H0z"></path></clipPath></defs></svg>