<svg width="32" height="32" fill="none" xmlns="http://www.w3.org/2000/svg"><path d="m9 9-.334 8.992a2 2 0 0 0 2 2.008l12.333-.333.334-9a2 2 0 0 0-1.999-2L9 9Z" fill="#00832D"></path><path d="M9.008 17.658 8.999 9l-3.676-.005a2.002 2.002 0 0 0-1.995 1.997L3.29 28.738c0 .892 1.077 1.337 1.707.707l4.001-4.112h12a2 2 0 0 0 2-2v-3.666H11.008a2 2 0 0 1-2-2.009Z" fill="#00AC47"></path><path d="M23 19.667h3.667a2 2 0 0 0 2-2V5.333a2 2 0 0 0-2-2H11.015a2 2 0 0 0-2 2.015L9 9l12.002-.002a2.001 2.001 0 0 1 1.998 2v8.669Z" fill="#5BB974"></path></svg>