<svg width="32" height="32" fill="none" xmlns="http://www.w3.org/2000/svg"><path d="M22.333 16.333H9.666v2.334h12.667v-2.334ZM19 20.333H9.665v2.334h9.333v-2.334Z" fill="#fff"></path><path d="m19.333 8.667 3.436.166 3.897-.166-7.333-7.334-.167 4.477.167 2.857Z" fill="#0066DA"></path><path d="M22.333 12.333H9.666v2.334h12.667v-2.334Z" fill="#fff"></path><path d="M19.334 8.667V1.333h-12a2 2 0 0 0-2 2v25.334a2 2 0 0 0 2 2h17.333a2 2 0 0 0 2-2v-20h-7.333Zm-.667 13.666h-8.666v-1.666h8.666v1.666Zm3.334-4H10v-1.666h12v1.666Zm0-4H10v-1.666h12v1.666Z" fill="#2684FC"></path></svg>