<svg width="32" height="32" fill="none" xmlns="http://www.w3.org/2000/svg"><g clip-path="url(#a)"><path d="m4.032 24.896 1.216 2.144c.256.448.64.8 1.056 1.056l4.416-7.616h-8.8c0 .512.128.992.384 1.44l1.728 2.976Z" fill="#0066DA"></path><path d="m15.872 11.52-4.384-7.616c-.448.256-.8.608-1.056 1.056L2.304 19.04a2.855 2.855 0 0 0-.384 1.44h8.8l5.152-8.96Z" fill="#00AC47"></path><path d="m15.872 11.52 4.416-7.616a2.855 2.855 0 0 0-1.44-.384h-5.92c-.512 0-.992.16-1.44.384l4.384 7.616Z" fill="#00832D"></path><path d="M21.056 20.48H10.72l-4.384 7.616c.448.256.928.384 1.44.384H24c.512 0 .992-.128 1.44-.384l-4.384-7.616Z" fill="#2684FC"></path><path d="M25.44 28.096c.448-.256.8-.608 1.056-1.056l.512-.896 2.464-4.224c.256-.448.384-.928.384-1.44h-8.768l4.352 7.616Z" fill="#EA4335"></path><path d="m25.407 12-4.064-7.04a2.789 2.789 0 0 0-1.056-1.056l-4.416 7.616 5.152 8.96h8.8c0-.512-.128-.992-.384-1.44L25.407 12Z" fill="#FFBA00"></path></g><defs><clipPath id="a"><path fill="#fff" transform="translate(1.92 3.52)" d="M0 0h27.936v24.96H0z"></path></clipPath></defs></svg>