<svg width="32" height="32" fill="none" xmlns="http://www.w3.org/2000/svg"><g clip-path="url(#a)"><path d="M3.84 26.56h4.48V15.68l-6.4-4.8v13.76c0 1.056.864 1.92 1.92 1.92Z" fill="#4285F4"></path><path d="M23.68 26.56h4.48c1.056 0 1.92-.864 1.92-1.92V10.88l-6.4 4.8v10.88Z" fill="#34A853"></path><path d="M23.68 7.36v8.32l6.4-4.8V8.32c0-2.368-2.72-3.744-4.608-2.304L23.68 7.36Z" fill="#FBBC04"></path><path fill-rule="evenodd" clip-rule="evenodd" d="M8.32 15.68V7.36L16 13.12l7.68-5.76v8.32L16 21.44l-7.68-5.76Z" fill="#EA4335"></path><path d="M1.92 8.32v2.56l6.4 4.8V7.36L6.528 6.016C4.64 4.608 1.92 5.952 1.92 8.32Z" fill="#C5221F"></path></g><defs><clipPath id="a"><path fill="#fff" transform="translate(1.92 5.44)" d="M0 0h28.16v21.12H0z"></path></clipPath></defs></svg>