<svg width="32" height="32" fill="none" xmlns="http://www.w3.org/2000/svg"><g clip-path="url(#a)"><path d="m17.76 16 2.72 3.136 3.68 2.336.64-5.44-.64-5.312-3.744 2.048L17.76 16Z" fill="#00832D"></path><path d="M1.92 20.96v4.64c0 1.056.864 1.92 1.92 1.92h4.64L9.44 24l-.96-3.04-3.2-.96-3.36.96Z" fill="#0066DA"></path><path d="m8.48 4.48-6.56 6.56 3.36.96 3.2-.96.96-3.008-.96-3.552Z" fill="#E94235"></path><path d="M8.48 11.04H1.92v9.92h6.56v-9.92Z" fill="#2684FC"></path><path d="m28.352 7.264-4.192 3.424v10.784l4.224 3.456a.955.955 0 0 0 1.536-.768V8c0-.8-.928-1.248-1.568-.736Z" fill="#00AC47"></path><path d="M17.76 16v4.96H8.48v6.56h13.76c1.057 0 1.92-.864 1.92-1.92v-4.128L17.76 16Z" fill="#00AC47"></path><path d="M22.24 4.48H8.48v6.56h9.28V16l6.4-5.312V6.4c0-1.056-.863-1.92-1.92-1.92Z" fill="#FFBA00"></path></g><defs><clipPath id="a"><path fill="#fff" transform="translate(1.92 4.48)" d="M0 0h28v23.04H0z"></path></clipPath></defs></svg>